# xmcd
#
# Track frame offsets:
#   150
#   13815
#   32557
#   45865
#   63447
#   76835
#   87927
#   102200
#   119050
#   141205
#   153480
#   173627
#   183370
#   197467
#   209170
#   223050
#   241585
#   252557
#
# Disc length: 3679 seconds
#
# Revision: 4
# Processed by: cddbd v1.5PL3 Copyright (c) Steve Scherf et al.
# Submitted via: Media_Universe 3.0
#
DISCID=f50e5d12
DTITLE=Various Artist - Guitar Kings
DYEAR=1900
DGENRE=blues
TTITLE0=Santana - Jingo
TTITLE1=The Booze Brothers feat. Mark Knopfler - Rock Steady Woman
TTITLE2=Mitch Ryder - A Big Man
TTITLE3=Tony Joe White - Rock And Roll
TTITLE4=Eric Clapton - You Got Me Running
TTITLE5=Jimi Hendrix - Snake Drive
TTITLE6=Johnny Winter - Little Wing
TTITLE7=Santana - Kind Hearted Woman
TTITLE8=Johnny Winter - Soul Sacrifice
TTITLE9=John Mayall - Parchman Farm
TTITLE10=Eric Clapton - Road Show
TTITLE11=Eric Clapton and Jimmy Page - Tribute To Elmore
TTITLE12=Jimi Hendrix - Purple Haze
TTITLE13=Alice Cooper - AC Instrumental
TTITLE14=The Yardbirds with Jeff Beck - Jeff's Blues
TTITLE15=The Booze Brothers feat. Mark Knopfler - Where Are You Tonight
TTITLE16=Eric Clapton and Jimmy Page - Miles Road
TTITLE17=Jimi Hendrix - Voodoo Chile (Slight Return)[Short Version]
EXTD=
EXTT0=
EXTT1=
EXTT2=
EXTT3=
EXTT4=
EXTT5=
EXTT6=
EXTT7=
EXTT8=
EXTT9=
EXTT10=
EXTT11=
EXTT12=
EXTT13=
EXTT14=
EXTT15=
EXTT16=
EXTT17=
PLAYORDER=
